<svg xmlns="http://www.w3.org/2000/svg" width="25" height="25" viewBox="0 0 25 25">
  <path id="Tracé_26" data-name="Tracé 26" d="M6.731,0a.907.907,0,0,0-.962.962V3.846a.907.907,0,0,0,.962.962.907.907,0,0,0,.962-.962V.962A.907.907,0,0,0,6.731,0ZM18.269,0a.907.907,0,0,0-.962.962V3.846a.962.962,0,1,0,1.923,0V.962A.907.907,0,0,0,18.269,0ZM2.885,1.923A2.834,2.834,0,0,0,0,4.808V22.115A2.834,2.834,0,0,0,2.885,25H22.115A2.834,2.834,0,0,0,25,22.115V4.808a2.834,2.834,0,0,0-2.885-2.885H20.192V3.846a1.923,1.923,0,1,1-3.846,0V1.923H8.654V3.846a1.923,1.923,0,1,1-3.846,0V1.923ZM1.923,8.654H23.077V22.115a.907.907,0,0,1-.962.962H2.885a.907.907,0,0,1-.962-.962Zm6.911,3.275-2.1.962.3,1.442,1.533-.781V20.1H10.4V11.929Zm5.018,0-.481,4.237a3.116,3.116,0,0,1,1.051-.12c1.634,0,2.314.488,2.314,1.352s-.883,1.262-1.653,1.262a4.191,4.191,0,0,1-1.8-.39l-.39,1.442a4.873,4.873,0,0,0,2.313.481c2.114,0,3.456-1.345,3.456-2.885a2.281,2.281,0,0,0-.962-2.013,3.955,3.955,0,0,0-2.134-.571h-.481l.211-1.262H18.36V11.929Z"/>
</svg>
