<svg xmlns="http://www.w3.org/2000/svg" width="13.222" height="17" viewBox="0 0 13.222 17">
  <g id="Groupe_21" data-name="Groupe 21" transform="translate(-6 -2)">
    <path id="Tracé_27" data-name="Tracé 27" d="M6.5,19.028V2.5h8.638L19.25,6.612V19.028Z" transform="translate(-0.264 -0.264)" fill="#fff"/>
    <path id="Tracé_28" data-name="Tracé 28" d="M14.777,2.472,18.75,6.445V18.528H6.472V2.472h8.3m.2-.472H6V19H19.222V6.25L14.972,2Z" fill="#c74343"/>
    <path id="Tracé_29" data-name="Tracé 29" d="M24.5,6.75V2.5h.138L28.75,6.612V6.75Z" transform="translate(-9.764 -0.264)" fill="#ffd9d9"/>
    <path id="Tracé_30" data-name="Tracé 30" d="M24.472,2.668,28.054,6.25H24.472V2.668m0-.668H24V6.722h4.722V6.25L24.472,2Z" transform="translate(-9.5)" fill="#c74343"/>
    <path id="Tracé_31" data-name="Tracé 31" d="M19.583,19.871c0-1.275-7.083-.076-7.083,1.457a.287.287,0,0,0,.313.255c1.483,0,4.231-7.083,2.886-7.083s.761,5.81,3.24,5.81C19.3,20.31,19.583,20.2,19.583,19.871Z" transform="translate(-3.431 -6.597)" fill="none" stroke="#c74343" stroke-miterlimit="10" stroke-width="1"/>
  </g>
</svg>
