<svg xmlns="http://www.w3.org/2000/svg" width="22" height="26.031" viewBox="0 0 22 26.031">
  <path id="icons8-poubelle" d="M11-.031a3.083,3.083,0,0,0-2.25.75A3.1,3.1,0,0,0,7.969,3H4A1,1,0,0,0,3,4H2V6H24V4H23a1,1,0,0,0-1-1H18.031A3.1,3.1,0,0,0,17.25.719,3.083,3.083,0,0,0,15-.031Zm0,2.063h4c.547,0,.719.129.781.188s.188.223.188.781H10.031c0-.559.125-.723.188-.781S10.453,2.031,11,2.031ZM4,7V23a3.006,3.006,0,0,0,3,3H19a3.006,3.006,0,0,0,3-3V7Zm4,3h2V22H8Zm4,0h2V22H12Zm4,0h2V22H16Z" transform="translate(-2 0.031)" fill="#747474"/>
</svg>
