<?xml version="1.0" encoding="utf-8"?>
<!-- Generator: Adobe Illustrator 24.3.0, SVG Export Plug-In . SVG Version: 6.00 Build 0)  -->
<svg version="1.1" id="Calque_1" xmlns="http://www.w3.org/2000/svg" xmlns:xlink="http://www.w3.org/1999/xlink" x="0px" y="0px"
	 viewBox="0 0 245.05 84.5" style="enable-background:new 0 0 245.05 84.5;" xml:space="preserve">
<style type="text/css">
	.st0{fill:#4F60A9;}
	.st1{fill:#FDC300;}
</style>
<g>
	<path class="st0" d="M53.67,47.67h-3.74c-0.42,0-0.76-0.1-1.03-0.32c-0.26-0.21-0.46-0.47-0.59-0.78l-1.94-5.31H35.58l-1.94,5.31
		c-0.1,0.28-0.28,0.53-0.56,0.76s-0.62,0.34-1.03,0.34h-3.78l10.24-26.03h4.93L53.67,47.67z M45.12,37.84l-3.17-8.66
		c-0.16-0.38-0.32-0.84-0.49-1.37c-0.17-0.53-0.34-1.1-0.5-1.71c-0.16,0.61-0.32,1.19-0.49,1.72s-0.33,1-0.49,1.39l-3.15,8.62H45.12
		z"/>
	<path class="st0" d="M70.23,26.38c-0.14,0.25-0.3,0.44-0.46,0.55c-0.16,0.11-0.36,0.17-0.6,0.17c-0.25,0-0.52-0.09-0.82-0.28
		s-0.65-0.39-1.05-0.62c-0.41-0.23-0.89-0.43-1.43-0.62c-0.55-0.19-1.19-0.28-1.94-0.28c-0.67,0-1.26,0.08-1.76,0.24
		c-0.5,0.16-0.93,0.39-1.27,0.67c-0.34,0.29-0.6,0.63-0.76,1.04c-0.17,0.4-0.25,0.84-0.25,1.32c0,0.61,0.17,1.12,0.51,1.53
		c0.34,0.41,0.79,0.76,1.36,1.04c0.56,0.29,1.21,0.55,1.93,0.77c0.72,0.23,1.46,0.47,2.21,0.73c0.76,0.26,1.49,0.56,2.21,0.9
		c0.72,0.34,1.36,0.77,1.93,1.3c0.56,0.52,1.02,1.16,1.36,1.92c0.34,0.76,0.51,1.67,0.51,2.75c0,1.18-0.2,2.28-0.6,3.3
		c-0.4,1.03-0.99,1.92-1.76,2.68s-1.72,1.36-2.83,1.8c-1.12,0.44-2.39,0.66-3.83,0.66c-0.83,0-1.64-0.08-2.45-0.24
		c-0.8-0.16-1.58-0.39-2.31-0.69c-0.74-0.3-1.43-0.66-2.08-1.08s-1.22-0.89-1.73-1.4l1.42-2.32c0.12-0.17,0.28-0.31,0.47-0.42
		s0.4-0.17,0.61-0.17c0.3,0,0.62,0.12,0.97,0.37s0.76,0.52,1.24,0.82c0.48,0.3,1.04,0.57,1.68,0.82c0.64,0.25,1.41,0.37,2.31,0.37
		c1.38,0,2.45-0.33,3.2-0.98c0.76-0.65,1.13-1.59,1.13-2.82c0-0.68-0.17-1.24-0.51-1.67c-0.34-0.43-0.8-0.79-1.36-1.09
		c-0.56-0.29-1.21-0.54-1.93-0.75c-0.72-0.2-1.45-0.43-2.2-0.67c-0.74-0.24-1.48-0.53-2.2-0.86s-1.36-0.77-1.93-1.31
		c-0.56-0.54-1.02-1.21-1.36-2.02c-0.34-0.81-0.51-1.81-0.51-3c0-0.95,0.19-1.87,0.57-2.77c0.38-0.9,0.93-1.7,1.65-2.39
		c0.72-0.7,1.61-1.25,2.66-1.67c1.06-0.42,2.27-0.63,3.64-0.63c1.54,0,2.95,0.24,4.25,0.72c1.3,0.48,2.4,1.15,3.31,2.02L70.23,26.38
		z"/>
	<path class="st0" d="M80.98,25.49v7.7h9.76v3.87h-9.76v10.6h-4.86V21.64h16.42v3.85H80.98z"/>
	<path class="st0" d="M121.08,34.66c0,1.91-0.32,3.67-0.95,5.3s-1.52,3.03-2.67,4.22c-1.15,1.19-2.54,2.12-4.16,2.78
		c-1.62,0.67-3.42,1-5.4,1c-1.97,0-3.76-0.33-5.38-1c-1.62-0.67-3.01-1.59-4.17-2.78c-1.16-1.19-2.06-2.59-2.69-4.22
		c-0.64-1.63-0.95-3.39-0.95-5.3c0-1.91,0.32-3.67,0.95-5.3c0.64-1.62,1.53-3.03,2.69-4.22c1.16-1.19,2.55-2.11,4.17-2.78
		s3.41-1,5.38-1c1.32,0,2.56,0.15,3.73,0.46c1.16,0.31,2.23,0.74,3.2,1.3c0.97,0.56,1.84,1.24,2.62,2.03
		c0.77,0.8,1.43,1.69,1.97,2.67c0.54,0.98,0.95,2.05,1.23,3.2C120.94,32.17,121.08,33.38,121.08,34.66z M116.13,34.66
		c0-1.43-0.19-2.71-0.58-3.84c-0.38-1.13-0.93-2.1-1.64-2.89c-0.71-0.79-1.57-1.4-2.58-1.82c-1.01-0.42-2.16-0.63-3.43-0.63
		s-2.42,0.21-3.43,0.63c-1.01,0.42-1.88,1.03-2.59,1.82s-1.26,1.75-1.65,2.89c-0.38,1.13-0.58,2.42-0.58,3.84
		c0,1.43,0.19,2.71,0.58,3.84c0.38,1.13,0.93,2.09,1.65,2.88s1.58,1.39,2.59,1.81c1.01,0.42,2.16,0.63,3.43,0.63
		s2.42-0.21,3.43-0.63c1.01-0.42,1.87-1.02,2.58-1.81c0.71-0.79,1.25-1.75,1.64-2.88S116.13,36.08,116.13,34.66z"/>
	<path class="st0" d="M145.67,47.67h-4.38c-0.83,0-1.43-0.32-1.8-0.97l-5.47-8.33c-0.2-0.31-0.43-0.53-0.67-0.67
		c-0.25-0.13-0.61-0.2-1.09-0.2h-2.07v10.17h-4.84V21.64h7.94c1.76,0,3.28,0.18,4.54,0.55c1.27,0.37,2.3,0.88,3.12,1.54
		c0.81,0.66,1.41,1.45,1.79,2.37c0.38,0.92,0.58,1.93,0.58,3.03c0,0.88-0.13,1.7-0.39,2.48c-0.26,0.78-0.63,1.49-1.12,2.12
		c-0.49,0.64-1.09,1.19-1.8,1.67c-0.71,0.48-1.53,0.86-2.44,1.13c0.31,0.18,0.6,0.39,0.86,0.64c0.26,0.25,0.5,0.54,0.72,0.87
		L145.67,47.67z M133.22,34.03c0.91,0,1.71-0.11,2.39-0.34c0.68-0.23,1.23-0.54,1.67-0.94c0.44-0.4,0.76-0.88,0.98-1.43
		c0.21-0.55,0.32-1.16,0.32-1.82c0-1.32-0.44-2.33-1.3-3.04c-0.87-0.71-2.2-1.06-3.99-1.06h-3.1v8.64H133.22z"/>
	<path class="st0" d="M147.65,34.94h9.32v3.71h-9.32V34.94z"/>
	<path class="st0" d="M179.8,41.53c0.26,0,0.5,0.1,0.7,0.31l1.91,2.07c-1.06,1.31-2.36,2.31-3.9,3.01c-1.54,0.7-3.39,1.04-5.55,1.04
		c-1.93,0-3.67-0.33-5.21-0.99c-1.54-0.66-2.86-1.58-3.95-2.75s-1.93-2.58-2.51-4.21s-0.87-3.41-0.87-5.35
		c0-1.96,0.31-3.75,0.94-5.37s1.5-3.03,2.64-4.2s2.49-2.09,4.06-2.75c1.57-0.65,3.31-0.98,5.22-0.98c1.9,0,3.58,0.31,5.05,0.94
		s2.72,1.44,3.75,2.45l-1.62,2.25c-0.1,0.14-0.22,0.27-0.37,0.38c-0.15,0.11-0.36,0.16-0.62,0.16c-0.18,0-0.37-0.05-0.56-0.15
		c-0.19-0.1-0.4-0.23-0.63-0.38c-0.23-0.15-0.49-0.31-0.79-0.5s-0.65-0.34-1.04-0.5c-0.4-0.15-0.86-0.28-1.38-0.38
		c-0.52-0.1-1.12-0.15-1.81-0.15c-1.16,0-2.23,0.21-3.19,0.62c-0.97,0.41-1.8,1.01-2.49,1.8c-0.7,0.79-1.24,1.75-1.62,2.88
		c-0.38,1.13-0.58,2.43-0.58,3.88c0,1.46,0.21,2.77,0.62,3.91c0.41,1.14,0.97,2.1,1.68,2.88c0.71,0.78,1.54,1.38,2.5,1.79
		c0.96,0.41,1.99,0.62,3.1,0.62c0.66,0,1.26-0.04,1.79-0.11c0.53-0.07,1.03-0.19,1.48-0.34c0.45-0.16,0.88-0.36,1.28-0.6
		c0.4-0.25,0.8-0.55,1.2-0.91c0.12-0.11,0.25-0.19,0.38-0.26C179.52,41.57,179.66,41.53,179.8,41.53z"/>
	<path class="st0" d="M203.06,41.53c0.26,0,0.5,0.1,0.7,0.31l1.91,2.07c-1.06,1.31-2.36,2.31-3.9,3.01
		c-1.54,0.7-3.39,1.04-5.55,1.04c-1.93,0-3.67-0.33-5.21-0.99c-1.54-0.66-2.86-1.58-3.95-2.75s-1.93-2.58-2.51-4.21
		s-0.87-3.41-0.87-5.35c0-1.96,0.31-3.75,0.94-5.37s1.5-3.03,2.64-4.2s2.49-2.09,4.06-2.75c1.57-0.65,3.31-0.98,5.22-0.98
		c1.9,0,3.58,0.31,5.05,0.94s2.72,1.44,3.75,2.45l-1.62,2.25c-0.1,0.14-0.22,0.27-0.37,0.38c-0.15,0.11-0.36,0.16-0.62,0.16
		c-0.18,0-0.37-0.05-0.56-0.15c-0.19-0.1-0.4-0.23-0.63-0.38c-0.23-0.15-0.49-0.31-0.79-0.5s-0.65-0.34-1.04-0.5
		c-0.4-0.15-0.86-0.28-1.38-0.38c-0.52-0.1-1.12-0.15-1.81-0.15c-1.16,0-2.23,0.21-3.19,0.62c-0.97,0.41-1.8,1.01-2.49,1.8
		c-0.7,0.79-1.24,1.75-1.62,2.88c-0.38,1.13-0.58,2.43-0.58,3.88c0,1.46,0.21,2.77,0.62,3.91c0.41,1.14,0.97,2.1,1.68,2.88
		c0.71,0.78,1.54,1.38,2.5,1.79c0.96,0.41,1.99,0.62,3.1,0.62c0.66,0,1.26-0.04,1.79-0.11c0.53-0.07,1.03-0.19,1.48-0.34
		c0.45-0.16,0.88-0.36,1.28-0.6c0.4-0.25,0.8-0.55,1.2-0.91c0.12-0.11,0.25-0.19,0.38-0.26C202.77,41.57,202.91,41.53,203.06,41.53z
		"/>
	<path class="st0" d="M213.86,47.67H209V21.64h4.86V47.67z"/>
</g>
<path class="st1" d="M122.52,61.91c-29.4,0-58.17-2.99-86.08-8.69c27.17,9.49,56.09,14.62,86.08,14.62s58.91-5.13,86.08-14.62
	C180.69,58.92,151.92,61.91,122.52,61.91z"/>
</svg>
